# xmcd
#
# Track frame offsets:
#	150
#	18095
#	34574
#	48712
#	62499
#	77969
#	91549
#	113078
#	137087
#	151860
#	173003
#	188861
#	202052
#
# Disc length: 2882 seconds
#
# Revision: 1
# Processed by: cddbd v1.5.2PL0 Copyright (c) Steve Scherf et al.
# Submitted via: audiograbber 1.83.01
#
DISCID=9d0b400d
DTITLE=Giant Sand - *proVISIONS*
DYEAR=2008
DGENRE=Alt Country
TTITLE0=Stranded Pearl
TTITLE1=Without A Word
TTITLE2=Can Do
TTITLE3=Out There
TTITLE4=The Desperate Kingdom Of Love
TTITLE5=Increment Of Love
TTITLE6=Spiral
TTITLE7=Pitch and Sway
TTITLE8=Muck Machine
TTITLE9=Belly Full Of Fire
TTITLE10=Saturated Beyond Repair
TTITLE11=World's State Park
TTITLE12=Well Enough Alone
EXTD=
EXTT0=
EXTT1=
EXTT2=
EXTT3=
EXTT4=
EXTT5=
EXTT6=
EXTT7=
EXTT8=
EXTT9=
EXTT10=
EXTT11=
EXTT12=
PLAYORDER=
